<svg width="25" height="25" viewBox="0 0 25 25" fill="none" xmlns="http://www.w3.org/2000/svg">
<g clip-path="url(#clip0_1_4433)">
<circle cx="12.5" cy="12.6953" r="7.95898" fill="#D9D9D9"/>
<path d="M24.0177 14.5456C24.1364 13.8661 24.1955 13.1774 24.1947 12.4876C24.2093 9.0225 22.6867 5.72928 20.0375 3.49564C17.3883 1.262 13.8851 0.317906 10.4723 0.917858C9.42328 0.313902 8.23358 -0.00269912 7.02313 -1.3574e-05C4.53861 0.015172 2.24848 1.34676 1.00624 3.49847C-0.236046 5.65018 -0.244054 8.2993 0.985097 10.4585C0.299257 14.2271 1.50067 18.093 4.20189 20.8089C6.90311 23.5249 10.7623 24.7474 14.5347 24.0821C15.5824 24.6855 16.7706 25.0021 17.9797 25C20.4629 24.984 22.7516 23.653 23.9936 21.5026C25.2356 19.3521 25.2448 16.7045 24.0177 14.5456ZM12.5487 20.0238C12.5494 20.0238 12.5501 20.0238 12.5508 20.0238H12.5467C12.5474 20.0239 12.548 20.0238 12.5487 20.0238C8.39726 20.0231 6.50043 17.908 6.50043 16.3566C6.49984 15.9864 6.6518 15.6324 6.92045 15.3777C7.1891 15.1231 7.55077 14.9903 7.9204 15.0107C9.69848 15.0107 9.23339 17.6778 12.5508 17.6778C14.2465 17.6778 15.2426 16.6571 15.2426 15.6981C15.2426 15.1219 14.9133 14.4633 13.7938 14.1999L10.0895 13.2656C7.11371 12.5082 6.59511 10.8536 6.59511 9.31844C6.59511 6.1327 9.50917 4.98026 12.2833 4.98026C14.8392 4.98026 17.8768 6.39203 17.8768 8.30179C17.8768 9.12499 17.1894 9.56537 16.391 9.56537C14.8722 9.56537 15.1274 7.43334 12.0734 7.43334C10.5546 7.43334 9.75614 8.1454 9.75614 9.14139C9.75614 10.1374 10.9374 10.4749 11.9746 10.7013L14.7076 11.3187C17.7039 11.9937 18.5024 13.7512 18.5024 15.4346C18.5024 18.0231 16.4986 20.0231 12.5487 20.0238Z" fill="#0079DA"/>
</g>
<defs>
<clipPath id="clip0_1_4433">
<rect width="25" height="25" fill="white"/>
</clipPath>
</defs>
</svg>
