<svg width="16" height="16" viewBox="0 0 16 16" fill="none" xmlns="http://www.w3.org/2000/svg">
<path d="M7.3879 2.08513C7.6195 1.54843 8.38051 1.54843 8.61211 2.08513L10.0655 5.45305C10.1635 5.68031 10.3794 5.83453 10.6262 5.8536L14.3533 6.14159C14.9513 6.1878 15.1889 6.93851 14.7264 7.32037L11.9235 9.63455C11.7258 9.79778 11.6392 10.0599 11.7008 10.3088L12.5634 13.7944C12.7053 14.3676 12.0869 14.8286 11.578 14.529L8.33822 12.6217C8.12949 12.4988 7.87053 12.4988 7.66179 12.6217L4.42197 14.529C3.9131 14.8286 3.29475 14.3676 3.43661 13.7944L4.29924 10.3088C4.36083 10.0599 4.27425 9.79778 4.07654 9.63455L1.27362 7.32037C0.811112 6.93851 1.04872 6.1878 1.64671 6.14159L5.37381 5.8536C5.62058 5.83453 5.83648 5.68031 5.93455 5.45305L7.3879 2.08513Z" fill="currentColor"/>
</svg>
