<svg xmlns="http://www.w3.org/2000/svg" xmlns:xlink="http://www.w3.org/1999/xlink"><defs><style>
    .sprite-symbol-usage {display: none;}
    .sprite-symbol-usage:target {display: inline;}
  </style><symbol fill="none" viewBox="0 0 16 16" id="arrow_left"><path fill-rule="evenodd" clip-rule="evenodd" d="M6.606 4.843a.667.667 0 0 0-.942.038L3.51 7.214a.667.667 0 0 0 0 .905l2.154 2.333a.667.667 0 0 0 .98-.904L5.522 8.333H12A.667.667 0 1 0 12 7H5.523l1.12-1.214a.667.667 0 0 0-.037-.943Z" fill="#E6E8EC" /></symbol><symbol fill="none" viewBox="0 0 16 16" id="arrow_right"><path fill-rule="evenodd" clip-rule="evenodd" d="M9.394 4.843a.667.667 0 0 1 .942.038l2.154 2.333a.667.667 0 0 1 0 .905l-2.154 2.333a.667.667 0 0 1-.98-.904l1.121-1.215H4A.667.667 0 0 1 4 7h6.477l-1.12-1.214a.667.667 0 0 1 .037-.943Z" fill="#E6E8EC" /></symbol><symbol fill="none" viewBox="0 0 35 35" id="chart_bar"><path fill-rule="evenodd" clip-rule="evenodd" d="M1.458 8.75a4.375 4.375 0 0 1 4.375-4.375h23.334a4.375 4.375 0 0 1 4.375 4.375v17.5a4.375 4.375 0 0 1-4.375 4.375H5.833a4.375 4.375 0 0 1-4.375-4.375V8.75Zm5.834 13.125a1.458 1.458 0 0 1 2.916 0v2.917a1.458 1.458 0 0 1-2.916 0v-2.917Zm7.291-10.208c-.805 0-1.458.653-1.458 1.458v11.667a1.458 1.458 0 0 0 2.917 0V13.125c0-.805-.653-1.458-1.459-1.458Zm4.375 4.375a1.458 1.458 0 1 1 2.917 0v8.75a1.458 1.458 0 1 1-2.917 0v-8.75ZM26.25 8.75c-.805 0-1.458.653-1.458 1.458v14.584a1.458 1.458 0 1 0 2.916 0V10.208c0-.805-.653-1.458-1.458-1.458Z" fill="#353945" /></symbol><symbol fill="none" viewBox="0 0 15 11" id="check"><path d="m1.5 5.5 4 4 8-8" stroke="#FCFCFD" stroke-width="2" stroke-miterlimit="10" stroke-linecap="round" stroke-linejoin="round" /></symbol><symbol fill="none" viewBox="0 0 24 24" id="close"><path fill-rule="evenodd" clip-rule="evenodd" d="M5.293 5.293a1 1 0 0 1 1.414 0L12 10.586l5.293-5.293a1 1 0 1 1 1.414 1.414L13.414 12l5.293 5.293a1 1 0 0 1-1.414 1.414L12 13.414l-5.293 5.293a1 1 0 0 1-1.414-1.414L10.586 12 5.293 6.707a1 1 0 0 1 0-1.414Z" fill="currentColor" /></symbol><symbol fill="none" viewBox="0 0 24 24" id="eye"><path fill-rule="evenodd" clip-rule="evenodd" d="M12 18c4.126 0 7.06-2.592 8.777-4.751a1.968 1.968 0 0 0 0-2.498C19.06 8.592 16.126 6 12 6c-4.125 0-7.06 2.592-8.777 4.751a1.968 1.968 0 0 0 0 2.498C4.94 15.408 7.875 18 12 18Zm10.342-3.506a3.967 3.967 0 0 0 0-4.988C20.474 7.158 17.027 4 12 4 6.974 4 3.526 7.158 1.658 9.506a3.967 3.967 0 0 0 0 4.988C3.526 16.842 6.974 20 12 20c5.027 0 8.474-3.158 10.342-5.506Z" fill="currentColor" /><path fill-rule="evenodd" clip-rule="evenodd" d="M14 12a2 2 0 1 1-3.998-.085A1.5 1.5 0 0 0 12 10.5a1.5 1.5 0 0 0-.085-.498L12 10a2 2 0 0 1 2 2Zm2 0a4 4 0 1 1-8 0 4 4 0 0 1 8 0Z" fill="currentColor" /></symbol><symbol fill="none" viewBox="0 0 25 25" id="lock"><path fill-rule="evenodd" clip-rule="evenodd" d="M3.24 13.78a4.564 4.564 0 0 1 4.293-4.248 78.685 78.685 0 0 1 9.934 0 4.564 4.564 0 0 1 4.292 4.248c.067.932.116 1.934.116 2.887 0 .953-.049 1.954-.116 2.886a4.564 4.564 0 0 1-4.292 4.248 78.708 78.708 0 0 1-9.934 0 4.564 4.564 0 0 1-4.292-4.248 40.833 40.833 0 0 1-.116-2.886c0-.954.048-1.955.116-2.887Zm11.343 1.845c0 .771-.419 1.444-1.041 1.805v1.32a1.042 1.042 0 0 1-2.084 0v-1.32a2.082 2.082 0 0 1 1.042-3.888c1.15 0 2.083.932 2.083 2.083Z" fill="#FCFCFD" /><path fill-rule="evenodd" clip-rule="evenodd" d="M7.292 6.25a5.208 5.208 0 1 1 10.416 0v4.167a1.042 1.042 0 0 1-2.083 0V6.25a3.125 3.125 0 1 0-6.25 0v4.167a1.042 1.042 0 1 1-2.083 0V6.25Z" fill="#FCFCFD" /></symbol><symbol fill="none" viewBox="0 0 35 35" id="megaphone"><path d="M6.723 23.333a.73.73 0 0 0-.716.872c.235 1.176.646 3.246.85 4.305.294 1.53 1.178 2.115 2.395 2.115a2.414 2.414 0 0 0 2.415-2.415v-4.148a.73.73 0 0 0-.73-.729H6.724ZM5.833 11.667a4.375 4.375 0 1 0 0 8.75h5.104a.73.73 0 0 0 .73-.73v-7.291a.73.73 0 0 0-.73-.73H5.833ZM15.034 10.398a.752.752 0 0 0-.45.683v9.921c0 .297.18.562.45.683.533.238 1.052.508 1.555.81l6.702 4.021c1.944 1.167 4.417-.234 4.417-2.5V8.067c0-2.267-2.473-3.667-4.417-2.5l-6.702 4.02c-.503.302-1.022.573-1.554.81ZM30.625 14.583a1.458 1.458 0 1 1 2.917 0V17.5a1.458 1.458 0 0 1-2.917 0v-2.917Z" fill="#353945" /></symbol><symbol fill="none" viewBox="0 0 25 25" id="skype"><g clip-path="url(#skype_a)"><circle cx="12.5" cy="12.695" r="7.959" fill="#D9D9D9" /><path d="M24.018 14.546c.118-.68.177-1.369.177-2.058A11.697 11.697 0 0 0 10.472.918 6.882 6.882 0 0 0 7.023 0 6.997 6.997 0 0 0 .985 10.459a11.706 11.706 0 0 0 13.55 13.623A6.879 6.879 0 0 0 17.98 25a6.997 6.997 0 0 0 6.038-10.454Zm-11.47 5.478h.003-.004.002c-4.152 0-6.049-2.116-6.049-3.667a1.346 1.346 0 0 1 1.42-1.346c1.778 0 1.313 2.667 4.63 2.667 1.696 0 2.693-1.02 2.693-1.98 0-.576-.33-1.235-1.45-1.498l-3.704-.934c-2.975-.758-3.494-2.412-3.494-3.948 0-3.185 2.914-4.338 5.688-4.338 2.556 0 5.594 1.412 5.594 3.322 0 .823-.688 1.263-1.486 1.263-1.519 0-1.264-2.132-4.318-2.132-1.518 0-2.317.712-2.317 1.708s1.181 1.334 2.219 1.56l2.733.618c2.996.675 3.794 2.432 3.794 4.116 0 2.588-2.003 4.588-5.953 4.589Z" fill="#0079DA" /></g><defs></defs></symbol><clipPath id="skype_a"><path fill="#fff" d="M0 0h25v25H0z" /></clipPath><symbol fill="none" viewBox="0 0 36 35" id="smile"><path fill-rule="evenodd" clip-rule="evenodd" d="M32.583 17.5c0 8.054-6.529 14.583-14.583 14.583S3.417 25.554 3.417 17.5 9.946 2.917 18 2.917 32.583 9.446 32.583 17.5Zm-18.999 2.574a1.458 1.458 0 1 0-2.835.686 7.047 7.047 0 0 0 2.644 3.97A7.686 7.686 0 0 0 18 26.25c1.664 0 3.288-.53 4.607-1.52a7.048 7.048 0 0 0 2.644-3.97 1.458 1.458 0 0 0-2.835-.686c-.218.9-.76 1.723-1.559 2.323a4.77 4.77 0 0 1-2.857.936 4.77 4.77 0 0 1-2.857-.936 4.131 4.131 0 0 1-1.559-2.323Zm1.76-4.056a1.458 1.458 0 0 1-1.696-1.174.781.781 0 0 0-.023-.096.781.781 0 0 0-.024.096 1.458 1.458 0 1 1-2.87-.521c.122-.669.43-1.32.93-1.82a2.777 2.777 0 0 1 1.964-.836c.768 0 1.457.33 1.964.836.5.5.808 1.151.929 1.82a1.458 1.458 0 0 1-1.175 1.695Zm7.054-1.174a1.458 1.458 0 1 0 2.87-.521 3.437 3.437 0 0 0-.93-1.82 2.777 2.777 0 0 0-1.963-.836c-.769 0-1.458.33-1.964.836-.5.5-.808 1.151-.93 1.82a1.458 1.458 0 1 0 2.87.52.781.781 0 0 1 .024-.095c.009.029.017.06.023.096Z" fill="#353945" /></symbol><symbol fill="none" viewBox="0 0 16 16" id="star"><path d="M7.388 2.085a.667.667 0 0 1 1.224 0l1.454 3.368a.666.666 0 0 0 .56.4l3.727.289a.667.667 0 0 1 .373 1.178l-2.803 2.315a.667.667 0 0 0-.222.674l.862 3.485a.667.667 0 0 1-.985.735l-3.24-1.907a.667.667 0 0 0-.676 0l-3.24 1.907a.667.667 0 0 1-.985-.735l.862-3.485a.667.667 0 0 0-.222-.674L1.274 7.32a.667.667 0 0 1 .373-1.178l3.727-.288a.667.667 0 0 0 .56-.4l1.454-3.369Z" fill="currentColor" /></symbol><symbol fill="none" viewBox="0 0 25 25" id="telegram"><g clip-path="url(#telegram_a)"><path d="M12.5 25C19.404 25 25 19.404 25 12.5S19.404 0 12.5 0 0 5.596 0 12.5 5.596 25 12.5 25Z" fill="#039BE5" /><path d="m5.72 12.23 12.052-4.648c.56-.202 1.048.137.866.983l.002-.001-2.053 9.667c-.152.686-.559.852-1.129.53l-3.125-2.304-1.507 1.452c-.167.167-.307.308-.63.308l.222-3.18 5.791-5.233c.252-.222-.056-.347-.388-.126l-7.158 4.506-3.085-.962c-.67-.213-.684-.67.142-.993Z" fill="#fff" /></g><defs></defs></symbol><clipPath id="telegram_a"><path fill="#fff" d="M0 0h25v25H0z" /></clipPath><symbol fill="none" viewBox="0 0 25 25" id="user"><path fill-rule="evenodd" clip-rule="evenodd" d="M19.602 14.713c-.642-.744-1.745-.706-2.607-.234a9.333 9.333 0 0 1-4.495 1.146 9.334 9.334 0 0 1-4.495-1.146c-.862-.472-1.965-.51-2.607.234a9.339 9.339 0 0 0-2.273 6.12v1.042c0 1.15.933 2.083 2.083 2.083h14.584c1.15 0 2.083-.932 2.083-2.083v-1.042a9.339 9.339 0 0 0-2.273-6.12Z" fill="#FCFCFD" /><path d="M17.708 6.25a5.208 5.208 0 1 1-10.417 0 5.208 5.208 0 0 1 10.417 0Z" fill="#FCFCFD" /></symbol></defs><use id="arrow_left-usage" xlink:href="#arrow_left" class="sprite-symbol-usage" /><use id="arrow_right-usage" xlink:href="#arrow_right" class="sprite-symbol-usage" /><use id="chart_bar-usage" xlink:href="#chart_bar" class="sprite-symbol-usage" /><use id="check-usage" xlink:href="#check" class="sprite-symbol-usage" /><use id="close-usage" xlink:href="#close" class="sprite-symbol-usage" /><use id="eye-usage" xlink:href="#eye" class="sprite-symbol-usage" /><use id="lock-usage" xlink:href="#lock" class="sprite-symbol-usage" /><use id="megaphone-usage" xlink:href="#megaphone" class="sprite-symbol-usage" /><use id="skype-usage" xlink:href="#skype" class="sprite-symbol-usage" /><use id="smile-usage" xlink:href="#smile" class="sprite-symbol-usage" /><use id="star-usage" xlink:href="#star" class="sprite-symbol-usage" /><use id="telegram-usage" xlink:href="#telegram" class="sprite-symbol-usage" /><use id="user-usage" xlink:href="#user" class="sprite-symbol-usage" /></svg>