<svg width="222" height="238" viewBox="0 0 222 238" fill="none" xmlns="http://www.w3.org/2000/svg">
<g opacity="0.3">
<path d="M76.9256 140.093C-125.844 128.859 -92.0232 118.345 -97.8011 204.856C-103.579 291.367 101.578 322.877 174.45 252.168C209.802 217.867 251.189 73.53 166.091 60.0486C145.757 56.8272 116.034 142.26 76.9256 140.093Z" fill="#FF7A00"/>
<path d="M132.608 210.792C127.748 227.101 116.988 240.524 102.968 249.695C84.4372 261.816 60.2104 266.507 36.3796 260.616C12.5488 254.724 -71.0764 268.332 -80.3353 249.341C-87.3405 234.973 -85.1958 204.238 -80.3353 187.928C-74.7988 169.351 -2.56704 157.979 14.3781 148.911C31.9711 139.496 55.922 118.22 77.245 123.492C102.261 129.676 129.669 138.867 138.436 159.183C144.339 172.863 137.149 195.555 132.608 210.792Z" fill="#FF29A8"/>
<ellipse cx="136.761" cy="107.189" rx="136.761" ry="107.189" transform="matrix(-0.998469 -0.055319 0.0666398 -0.997777 168.103 229.032)" fill="#FFD481"/>
</g>
</svg>
